PathFileType	4	(x/y/z)	S06_PSF_T08
DataRate	CameraRate	NumFrames	NumMarkers	Units	OrigDataRate	OrigDataStartFrame	OrigNumFrames
240	240	9	51	mm	240	204	407
Frame#	Time	Sternum			R.Acromium			L.Acromium			Top.Head			R.ASIS			L.ASIS			R.PSIS			L.PSIS			R.Great.Tro			L.Great.Tro			R.Iliac.Crest			L.Iliac.Crest			V.Sacral			R.Thigh.Upper.Post			R.Thigh.Lower.Ant			R.Thigh.Lower.Post			R.Thigh.Upper.Ant			R.Knee.Lat			R.Knee.Med			R.Shank.Upper.Post			R.Shank.Lower.Ant			R.Shank.Lower.Post			R.Shank.Upper.Ant			R.Ankle.Lat			R.Ankle.Med			R.Heel.Upper			R.Heel.Med			R.Heel.Lat			R.Toe.Lat			R.Toe.Med			R.Toe.Tip			L.Thigh.Upper.Post			L.Thigh.Lower.Ant			L.Thigh.Lower.Post			L.Thigh.Upper.Ant			L.Knee.Lat			L.Knee.Med			L.Shank.Upper.Post			L.Shank.Lower.Ant			L.Shank.Lower.Post			L.Shank.Upper.Ant			L.Ankle.Lat			L.Ankle.Med			L.Heel.Upper			L.Heel.Med			L.Heel.Lat			L.Toe.Lat			L.Toe.Med			L.Toe.Tip			Cervical.Spine			Back			
		X1	Y1	Z1	X2	Y2	Z2	X3	Y3	Z3	X4	Y4	Z4	X5	Y5	Z5	X6	Y6	Z6	X7	Y7	Z7	X8	Y8	Z8	X9	Y9	Z9	X10	Y10	Z10	X11	Y11	Z11	X12	Y12	Z12	X13	Y13	Z13	X14	Y14	Z14	X15	Y15	Z15	X16	Y16	Z16	X17	Y17	Z17	X18	Y18	Z18	X19	Y19	Z19	X20	Y20	Z20	X21	Y21	Z21	X22	Y22	Z22	X23	Y23	Z23	X24	Y24	Z24	X25	Y25	Z25	X26	Y26	Z26	X27	Y27	Z27	X28	Y28	Z28	X29	Y29	Z29	X30	Y30	Z30	X31	Y31	Z31	X32	Y32	Z32	X33	Y33	Z33	X34	Y34	Z34	X35	Y35	Z35	X36	Y36	Z36	X37	Y37	Z37	X38	Y38	Z38	X39	Y39	Z39	X40	Y40	Z40	X41	Y41	Z41	X42	Y42	Z42	X43	Y43	Z43	X44	Y44	Z44	X45	Y45	Z45	X46	Y46	Z46	X47	Y47	Z47	X48	Y48	Z48	X49	Y49	Z49	X50	Y50	Z50	X51	Y51	Z51	

204	0.84583	-363.8	1296.6	342.49	-489.49	1499.7	514.17	-496.78	1503.3	161.19	-460.76	1819.3	343.54	-412.41	1066.6	472.34	-399.69	1059.1	219.19	NaN	NaN	NaN	-606.47	1080.4	292.15	-471.31	991.13	519.54	-491.05	977.84	163.44	-499.39	1139.4	499.72	-472.72	1129.5	181.03	-621.73	1046.7	337.48	-458.29	737.85	498.7	-400.23	660.4	460.84	-468.31	651.91	475.45	-388.09	748.41	482.01	-445.19	542.42	456.64	-441.03	552.61	328.39	-507	316.38	442.49	-451.62	249.14	418.5	-518.2	241.4	423.1	-442.69	322.83	436.25	-500.25	111.48	390.68	-484.24	123.55	306.86	-566.23	76.094	340.25	-558.39	44.618	310.08	-559.97	44.608	375.23	-383.05	37.107	421.55	-354.63	41.869	299.97	-289.54	52.815	347.35	-337.06	750.34	168.51	-267.38	686.86	226.37	-323.94	660.19	177.7	-287.9	779.8	213.29	-328.4	567.93	190.43	-299.94	565.94	313.39	-489.97	418.65	190.26	-477.37	330.62	189.51	-539.39	364.82	202.81	-432.6	385.57	182.49	-588.61	230.25	195.17	-573.85	234.82	284.25	-673.74	245.31	238.67	-692.15	219.79	266.4	-684.09	227.32	205.46	-550.06	109.53	168.74	-545.65	88.858	285.54	-474.48	61.344	235.97	-549.34	1554.7	339.26	-605	1282.2	337.23
205	0.85	-358.73	1296.9	342.58	-484.08	1500.2	514.19	-491.71	1503.5	161.24	-455.32	1819.5	343.35	-407.56	1066.8	472.57	-394.66	1059.6	219.46	NaN	NaN	NaN	-601.44	1080.7	292.08	-466.54	991.3	519.59	-485.55	978.35	163.45	-494.5	1139.7	499.83	-467.77	1129.8	181.2	-616.71	1047	337.42	-455.04	738.04	498.57	-397.47	660.27	460.69	-465.55	652.13	475.39	-384.75	748.19	481.76	-443.38	542.39	456.48	-439.19	552.64	328.19	-506.11	316.57	442.33	-450.96	249.14	418.3	-517.55	241.62	422.92	-441.77	322.81	436.1	-500.06	111.61	390.54	-484.08	123.66	306.72	-566.14	76.207	340.16	-558.53	44.655	309.96	-559.92	44.762	375.17	-383.03	37.122	421.51	-354.59	41.811	299.93	-289.46	52.687	347.36	-329.79	751.88	169.11	-259.94	688.88	227.33	-316.1	661.8	178.42	-281.05	781.67	214.12	-320.02	569.44	191.19	-292.08	567.76	314.09	-479.17	417.22	190.71	-464.97	329.46	189.65	-527.52	362.44	203.08	-421.23	385.22	182.77	-574.21	226.82	195.07	-559.45	231.48	284.13	-659.84	239.54	238.51	-677.59	213.49	266.16	-669.68	221.39	205.27	-532.58	107.22	168.32	-527.66	86.472	285.09	-455.75	60.909	235.47	-544.06	1555	339.32	-599.85	1282.5	337.46
206	0.85417	-353.66	1297.2	342.66	-478.68	1500.6	514.21	-486.64	1503.7	161.29	-449.9	1819.7	343.14	-402.7	1066.9	472.79	-389.62	1060	219.71	NaN	NaN	NaN	-596.41	1080.9	292.01	-461.79	991.43	519.63	-480.06	978.82	163.46	-489.6	1140	499.93	-462.8	1130.2	181.35	-611.67	1047.2	337.35	-451.81	738.21	498.43	-394.75	660.14	460.52	-462.82	652.34	475.32	-381.43	747.95	481.49	-441.6	542.37	456.32	-437.39	552.66	327.99	-505.23	316.75	442.17	-450.32	249.15	418.09	-516.91	241.84	422.73	-440.88	322.78	435.94	-499.86	111.74	390.4	-483.93	123.77	306.59	-566.05	76.321	340.07	-558.66	44.693	309.85	-559.87	44.918	375.11	-383.01	37.138	421.48	-354.54	41.753	299.9	-289.38	52.558	347.37	-322.64	753.35	169.71	-252.63	690.81	228.28	-308.43	663.32	179.16	-274.29	783.44	214.92	-311.8	570.89	191.96	-284.37	569.52	314.78	-468.41	415.67	191.19	-452.55	328.21	189.82	-515.63	359.92	203.41	-409.9	384.8	183.08	-559.69	223.28	195.02	-544.91	228.04	284.07	-645.74	233.64	238.45	-662.8	207.08	266.01	-655.08	215.33	205.18	-515	104.88	167.94	-509.5	84.071	284.67	-436.94	60.476	234.98	-538.78	1555.2	339.38	-594.7	1282.8	337.69
207	0.85833	-348.57	1297.4	342.74	-473.27	1501	514.23	-481.55	1503.9	161.33	-444.48	1819.9	342.92	-397.83	1067	472.99	-384.58	1060.4	219.94	NaN	NaN	NaN	-591.38	1081.1	291.93	-457.03	991.53	519.67	-474.57	979.25	163.48	-484.68	1140.2	500.02	-457.81	1130.5	181.49	-606.63	1047.4	337.28	-448.6	738.38	498.28	-392.05	660	460.35	-460.12	652.55	475.23	-378.14	747.71	481.22	-439.85	542.34	456.16	-435.61	552.69	327.77	-504.37	316.93	442	-449.71	249.16	417.88	-516.28	242.06	422.54	-440	322.77	435.78	-499.67	111.87	390.26	-483.8	123.89	306.46	-565.96	76.437	339.97	-558.76	44.732	309.74	-559.83	45.075	375.04	-382.99	37.152	421.44	-354.5	41.696	299.86	-289.3	52.428	347.37	-315.58	754.74	170.32	-245.45	692.63	229.22	-300.91	664.77	179.92	-267.61	785.11	215.72	-303.76	572.26	192.74	-276.83	571.19	315.46	-457.69	413.98	191.7	-440.12	326.88	190.01	-503.72	357.27	203.78	-398.61	384.29	183.41	-545.07	219.65	195.03	-530.21	224.5	284.06	-631.45	227.62	238.49	-647.77	200.56	265.98	-640.29	209.15	205.19	-497.33	102.52	167.6	-491.17	81.668	284.28	-418.05	60.057	234.5	-533.49	1555.5	339.44	-589.55	1283.1	337.91
208	0.8625	-343.48	1297.6	342.82	-467.87	1501.3	514.24	-476.46	1504	161.38	-439.08	1820.1	342.69	-392.95	1067	473.19	-379.53	1060.7	220.16	NaN	NaN	NaN	-586.35	1081.2	291.86	-452.28	991.6	519.71	-469.11	979.63	163.51	-479.73	1140.3	500.1	-452.8	1130.7	181.63	-601.57	1047.5	337.2	-445.42	738.53	498.11	-389.39	659.85	460.17	-457.44	652.75	475.13	-374.86	747.44	480.94	-438.12	542.31	456	-433.85	552.71	327.56	-503.52	317.1	441.83	-449.11	249.18	417.65	-515.66	242.28	422.35	-439.14	322.76	435.61	-499.48	112	390.12	-483.67	124	306.34	-565.87	76.554	339.87	-558.85	44.774	309.63	-559.78	45.234	374.98	-382.96	37.164	421.4	-354.47	41.64	299.82	-289.22	52.296	347.37	-308.64	756.05	170.93	-238.4	694.34	230.15	-293.55	666.14	180.7	-261.01	786.67	216.49	-295.9	573.55	193.52	-269.43	572.77	316.13	-447.01	412.16	192.23	-427.69	325.47	190.23	-491.79	354.49	204.19	-387.36	383.7	183.76	-530.33	215.93	195.11	-515.35	220.89	284.13	-616.96	221.5	238.62	-632.51	193.94	266.06	-625.3	202.87	205.3	-479.59	100.14	167.3	-472.67	79.275	283.93	-399.09	59.664	234.02	-528.2	1555.7	339.51	-584.4	1283.3	338.13
209	0.86667	-338.38	1297.7	342.89	-462.46	1501.6	514.26	-471.37	1504.1	161.42	-433.68	1820.2	342.46	-388.06	1067	473.36	-374.47	1061	220.36	NaN	NaN	NaN	-581.32	1081.3	291.79	-447.54	991.64	519.74	-463.65	979.97	163.54	-474.77	1140.5	500.17	-447.77	1130.9	181.75	-596.5	1047.7	337.12	-442.26	738.66	497.92	-386.77	659.69	459.98	-454.8	652.93	475.01	-371.61	747.17	480.66	-436.41	542.28	455.84	-432.11	552.73	327.35	-502.68	317.28	441.66	-448.53	249.2	417.41	-515.05	242.5	422.17	-438.3	322.75	435.44	-499.28	112.13	389.98	-483.55	124.1	306.22	-565.78	76.673	339.77	-558.89	44.819	309.53	-559.73	45.393	374.92	-382.94	37.175	421.35	-354.44	41.585	299.79	-289.15	52.164	347.38	-301.82	757.27	171.55	-231.49	695.93	231.06	-286.36	667.41	181.49	-254.51	788.12	217.24	-288.22	574.75	194.3	-262.17	574.27	316.79	-436.36	410.22	192.79	-415.25	323.98	190.48	-479.85	351.6	204.65	-376.16	383.04	184.12	-515.48	212.14	195.24	-500.33	217.22	284.25	-602.28	215.3	238.86	-617	187.26	266.24	-610.1	196.51	205.52	-461.76	97.756	167.03	-454.03	76.907	283.62	-380.07	59.308	233.53	-522.92	1555.9	339.57	-579.26	1283.6	338.35
210	0.87083	-333.27	1297.9	342.95	-457.06	1501.9	514.27	-466.27	1504.1	161.46	-428.29	1820.3	342.22	-383.16	1067	473.53	-369.41	1061.2	220.53	NaN	NaN	NaN	-576.29	1081.4	291.74	-442.79	991.64	519.76	-458.22	980.27	163.58	-469.77	1140.5	500.23	-442.71	1131.1	181.86	-591.43	1047.7	337.04	-439.12	738.79	497.73	-384.17	659.53	459.78	-452.17	653.11	474.88	-368.39	746.88	480.38	-434.72	542.24	455.68	-430.39	552.74	327.15	-501.84	317.46	441.49	-447.98	249.22	417.16	-514.44	242.73	421.99	-437.46	322.75	435.28	-499.09	112.26	389.84	-483.42	124.21	306.11	-565.7	76.792	339.66	-558.91	44.868	309.44	-559.68	45.552	374.85	-382.91	37.181	421.31	-354.42	41.531	299.75	-289.07	52.031	347.39	-295.11	758.39	172.17	-224.72	697.41	231.95	-279.35	668.59	182.3	-248.1	789.46	217.96	-280.73	575.87	195.07	-255.07	575.67	317.44	-425.75	408.16	193.38	-402.8	322.42	190.76	-467.89	348.59	205.16	-365.01	382.31	184.51	-500.53	208.29	195.43	-485.16	213.5	284.44	-587.39	209.04	239.2	-601.27	180.53	266.55	-594.71	190.07	205.85	-443.86	95.384	166.81	-435.23	74.58	283.34	-361	59.004	233.06	-517.63	1556	339.63	-574.11	1283.7	338.56
211	0.875	-328.16	1297.9	343.01	-451.65	1502.1	514.28	-461.17	1504.1	161.5	-422.92	1820.4	341.97	-378.25	1066.9	473.67	-364.34	1061.4	220.68	NaN	NaN	NaN	-571.27	1081.5	291.68	-438.04	991.61	519.79	-452.82	980.51	163.64	-464.75	1140.6	500.28	-437.62	1131.2	181.96	-586.34	1047.8	336.95	-436	738.9	497.52	-381.6	659.35	459.58	-449.57	653.28	474.74	-365.18	746.58	480.11	-433.06	542.21	455.53	-428.68	552.73	326.96	-501.02	317.64	441.33	-447.44	249.25	416.92	-513.84	242.95	421.82	-436.64	322.75	435.11	-498.89	112.4	389.71	-483.28	124.3	306.01	-565.61	76.912	339.56	-558.89	44.92	309.36	-559.63	45.71	374.79	-382.89	37.184	421.26	-354.4	41.477	299.71	-289	51.898	347.39	-288.53	759.42	172.79	-218.09	698.77	232.83	-272.51	669.67	183.11	-241.78	790.67	218.67	-273.42	576.89	195.84	-248.1	576.98	318.07	-415.18	405.99	193.99	-390.35	320.81	191.07	-455.91	345.47	205.71	-353.91	381.51	184.9	-485.46	204.38	195.68	-469.82	209.74	284.7	-572.31	202.72	239.65	-585.29	173.78	266.97	-579.12	183.59	206.29	-425.89	93.034	166.63	-416.3	72.309	283.1	-341.87	58.766	232.58	-512.34	1556.2	339.7	-568.97	1283.9	338.78
212	0.87917	-323.03	1298	343.06	-446.24	1502.3	514.29	-456.06	1504.1	161.53	-417.55	1820.4	341.73	-373.32	1066.8	473.8	-359.25	1061.5	220.81	NaN	NaN	NaN	-566.24	1081.5	291.64	-433.3	991.55	519.81	-447.44	980.71	163.7	-459.69	1140.6	500.32	-432.51	1131.3	182.05	-581.24	1047.8	336.87	-432.9	738.99	497.31	-379.06	659.16	459.37	-446.99	653.44	474.59	-362	746.26	479.85	-431.4	542.17	455.38	-426.98	552.72	326.77	-500.2	317.83	441.16	-446.93	249.28	416.67	-513.24	243.18	421.65	-435.83	322.75	434.95	-498.7	112.53	389.57	-483.12	124.4	305.91	-565.53	77.031	339.45	-558.84	44.977	309.28	-559.59	45.867	374.72	-382.86	37.181	421.21	-354.4	41.422	299.68	-288.93	51.765	347.4	-282.09	760.35	173.41	-211.6	699.99	233.67	-265.85	670.64	183.93	-235.56	791.77	219.34	-266.29	577.81	196.61	-241.27	578.18	318.69	-404.64	403.7	194.63	-377.9	319.14	191.4	-443.91	342.26	206.31	-342.86	380.65	185.32	-470.29	200.44	196	-454.32	205.97	285.03	-557.04	196.38	240.2	-569.08	167.01	267.51	-563.32	177.06	206.83	-407.84	90.717	166.49	-397.24	70.115	282.89	-322.7	58.61	232.11	-507.05	1556.2	339.76	-563.83	1284	338.99
